# xmcd CD database file
#
# Track frame offsets:
#	150
#	14208
#	36781
#	53217
#	61288
#	73903
#	86405
#	99660
#	116981
#	128511
#	148732
#	160868
#	174022
#	187454
#	205195
#	220732
#	234775
#	250504
#	261979
#	277285
#
# Disc length: 3973 seconds
#
# Revision: 0
# Processed by: cddbd v1.5.1PL0 Copyright (c) Steve Scherf et al.
# Submitted via: CDex 1.51
#
DISCID=2e0f8314
DTITLE=Frank Sinatra - Portrait of Sinatra - Disk 2
DYEAR=1977
DGENRE=Jazz
TTITLE0=That's Life
TTITLE1=Little Green Apples
TTITLE2=Song of the Sabia
TTITLE3=Goody Goody
TTITLE4=Empty Tables
TTITLE5=I Believe I'm Gonna Love You
TTITLE6=Stargazer
TTITLE7=I Sing the Songs
TTITLE8=You Are the Sunshine of My Life
TTITLE9=It Was a Very Good Year
TTITLE10=Something Stupid
TTITLE11=Young at Heart
TTITLE12=You Make Me Feel So Young
TTITLE13=Yesterday
TTITLE14=Pennies From Heaven
TTITLE15=If
TTITLE16=Something
TTITLE17=Star
TTITLE18=Love's Been Good to Me
TTITLE19=My Way
EXTD=YEAR: 1977
EXTT0=
EXTT1=
EXTT2=
EXTT3=
EXTT4=
EXTT5=
EXTT6=
EXTT7=
EXTT8=
EXTT9=
EXTT10=
EXTT11=
EXTT12=
EXTT13=
EXTT14=
EXTT15=
EXTT16=
EXTT17=
EXTT18=
EXTT19=
PLAYORDER=
